<svg width="531" height="118" viewBox="0 0 531 118" fill="none" xmlns="http://www.w3.org/2000/svg">
<rect x="13.1961" y="1.5" width="516.804" height="94.762" fill="black" stroke="white" stroke-width="2"/>
<mask id="path-2-outside-1_514_913" maskUnits="userSpaceOnUse" x="25" y="35.7979" width="214" height="54" fill="black">
<rect fill="white" x="25" y="35.7979" width="214" height="54"/>
<path d="M58.3237 79.165C54.9172 85.7878 49.8496 89.0991 43.1211 89.0991C39.4395 89.0991 36.1916 88.1258 33.3774 86.1792C28.384 82.7515 25.8872 77.4194 25.8872 70.1831C25.8872 65.4012 27.0827 61.3916 29.4736 58.1543C31.6318 55.2132 34.5094 53.2137 38.1064 52.1558C39.8838 51.6479 41.7035 51.394 43.5654 51.394C47.4163 51.394 50.5796 52.3779 53.0552 54.3457C55.2769 56.0807 56.3877 57.9533 56.3877 59.9634C56.3877 60.7039 56.2396 61.4022 55.9434 62.0581C55.3086 63.3911 54.2401 64.0576 52.7378 64.0576C51.4894 64.0576 50.5373 63.5815 49.8813 62.6294C49.4793 62.0793 49.2783 61.4233 49.2783 60.6616C49.2783 59.1382 49.7967 58.112 50.8335 57.583C49.5005 55.5306 47.099 54.5044 43.6289 54.5044C39.778 54.5044 36.6465 56.123 34.2344 59.3604C32.1396 62.1956 31.0923 65.8032 31.0923 70.1831C31.0923 73.3781 31.6742 76.1605 32.8379 78.5303C33.8958 80.7096 35.3664 82.4129 37.2495 83.6401C39.1326 84.8462 41.238 85.4492 43.5654 85.4492C48.7705 85.4492 53.0129 82.6562 56.2925 77.0703L58.3237 79.165ZM80.7944 51.394C86.465 51.394 90.8872 53.6157 94.061 58.0591C96.452 61.4022 97.6475 65.4964 97.6475 70.3418C97.6475 75.2718 96.4731 79.3766 94.1245 82.6562C91.0353 86.9515 86.5708 89.0991 80.731 89.0991C75.7163 89.0991 71.675 87.4593 68.6069 84.1797C65.4331 80.7731 63.8462 76.1605 63.8462 70.3418C63.8462 64.8828 65.3273 60.4289 68.2896 56.98C71.4634 53.256 75.6317 51.394 80.7944 51.394ZM80.6675 54.5044C77.7899 54.5044 75.3249 55.5623 73.2725 57.6782C70.4583 60.5347 69.0513 64.703 69.0513 70.1831C69.0513 74.6053 70.2256 78.361 72.5742 81.4502C74.8594 84.4759 77.5889 85.9888 80.7627 85.9888C83.6615 85.9888 86.2323 84.6663 88.4751 82.0215C91.12 78.8688 92.4424 74.9121 92.4424 70.1514C92.4424 65.7503 91.4797 62.1322 89.5542 59.2969C87.3748 56.1019 84.4126 54.5044 80.6675 54.5044ZM109.994 52.6953V49.1724C109.994 45.4696 111.041 42.4121 113.136 40C115.104 37.7572 117.812 36.6357 121.261 36.6357C123.969 36.6357 126.17 37.2917 127.862 38.6035C129.513 39.8519 130.338 41.4494 130.338 43.396C130.338 44.0731 130.19 44.6761 129.894 45.2051C129.195 46.4746 128.148 47.1094 126.751 47.1094C125.567 47.1094 124.646 46.6227 123.99 45.6494C123.588 45.057 123.387 44.3693 123.387 43.5864C123.387 42.2534 123.948 41.3436 125.069 40.8569C124.286 40.0741 123.059 39.6826 121.388 39.6826C118.933 39.6826 117.092 40.7723 115.865 42.9517C114.977 44.5597 114.532 46.6545 114.532 49.2358V52.6953H124.815V55.8057H114.532V80.2441C114.532 82.3177 114.913 83.6719 115.675 84.3066C116.415 84.9414 118.023 85.3223 120.499 85.4492V87.7979H103.9V85.4492C106.46 85.3434 108.121 84.9308 108.883 84.2114C109.623 83.5343 109.994 82.2119 109.994 80.2441V55.8057H102.599V52.6953H109.994ZM139.891 52.6953V49.1724C139.891 45.4696 140.938 42.4121 143.033 40C145.001 37.7572 147.709 36.6357 151.158 36.6357C153.867 36.6357 156.067 37.2917 157.76 38.6035C159.41 39.8519 160.235 41.4494 160.235 43.396C160.235 44.0731 160.087 44.6761 159.791 45.2051C159.093 46.4746 158.045 47.1094 156.649 47.1094C155.464 47.1094 154.544 46.6227 153.888 45.6494C153.486 45.057 153.285 44.3693 153.285 43.5864C153.285 42.2534 153.845 41.3436 154.967 40.8569C154.184 40.0741 152.957 39.6826 151.285 39.6826C148.831 39.6826 146.99 40.7723 145.763 42.9517C144.874 44.5597 144.43 46.6545 144.43 49.2358V52.6953H154.713V55.8057H144.43V80.2441C144.43 82.3177 144.811 83.6719 145.572 84.3066C146.313 84.9414 147.921 85.3223 150.396 85.4492V87.7979H133.797V85.4492C136.358 85.3434 138.019 84.9308 138.78 84.2114C139.521 83.5343 139.891 82.2119 139.891 80.2441V55.8057H132.496V52.6953H139.891ZM169.503 69.8975V70.4053C169.503 73.8118 170.18 76.7529 171.534 79.2285C173.798 83.3757 177.279 85.4492 181.976 85.4492C187.181 85.4492 191.519 82.7832 194.989 77.4512L197.052 79.5142C193.37 85.9041 188.207 89.0991 181.563 89.0991C175.724 89.0991 171.206 86.9092 168.011 82.5293C165.62 79.2497 164.425 75.1978 164.425 70.3735C164.425 65.4012 165.758 61.1694 168.424 57.6782C171.661 53.4888 175.925 51.394 181.214 51.394C184.917 51.394 188.144 52.4414 190.895 54.5361C193.984 56.8636 195.994 60.048 196.925 64.0894C197.263 65.5493 197.433 67.0516 197.433 68.5962V69.8975H169.503ZM191.974 66.7871C191.804 63.1901 191.011 60.4606 189.593 58.5986C187.499 55.8268 184.727 54.4409 181.278 54.4409C178.041 54.4409 175.279 55.8268 172.994 58.5986C171.174 60.7992 170.053 63.5286 169.63 66.7871H191.974ZM210.445 69.8975V70.4053C210.445 73.8118 211.122 76.7529 212.477 79.2285C214.741 83.3757 218.221 85.4492 222.918 85.4492C228.124 85.4492 232.461 82.7832 235.931 77.4512L237.994 79.5142C234.312 85.9041 229.15 89.0991 222.506 89.0991C216.666 89.0991 212.149 86.9092 208.954 82.5293C206.563 79.2497 205.367 75.1978 205.367 70.3735C205.367 65.4012 206.7 61.1694 209.366 57.6782C212.604 53.4888 216.867 51.394 222.157 51.394C225.86 51.394 229.086 52.4414 231.837 54.5361C234.926 56.8636 236.936 60.048 237.867 64.0894C238.206 65.5493 238.375 67.0516 238.375 68.5962V69.8975H210.445ZM232.916 66.7871C232.747 63.1901 231.953 60.4606 230.536 58.5986C228.441 55.8268 225.669 54.4409 222.22 54.4409C218.983 54.4409 216.222 55.8268 213.937 58.5986C212.117 60.7992 210.995 63.5286 210.572 66.7871H232.916Z"/>
</mask>
<path d="M58.3237 79.165C54.9172 85.7878 49.8496 89.0991 43.1211 89.0991C39.4395 89.0991 36.1916 88.1258 33.3774 86.1792C28.384 82.7515 25.8872 77.4194 25.8872 70.1831C25.8872 65.4012 27.0827 61.3916 29.4736 58.1543C31.6318 55.2132 34.5094 53.2137 38.1064 52.1558C39.8838 51.6479 41.7035 51.394 43.5654 51.394C47.4163 51.394 50.5796 52.3779 53.0552 54.3457C55.2769 56.0807 56.3877 57.9533 56.3877 59.9634C56.3877 60.7039 56.2396 61.4022 55.9434 62.0581C55.3086 63.3911 54.2401 64.0576 52.7378 64.0576C51.4894 64.0576 50.5373 63.5815 49.8813 62.6294C49.4793 62.0793 49.2783 61.4233 49.2783 60.6616C49.2783 59.1382 49.7967 58.112 50.8335 57.583C49.5005 55.5306 47.099 54.5044 43.6289 54.5044C39.778 54.5044 36.6465 56.123 34.2344 59.3604C32.1396 62.1956 31.0923 65.8032 31.0923 70.1831C31.0923 73.3781 31.6742 76.1605 32.8379 78.5303C33.8958 80.7096 35.3664 82.4129 37.2495 83.6401C39.1326 84.8462 41.238 85.4492 43.5654 85.4492C48.7705 85.4492 53.0129 82.6562 56.2925 77.0703L58.3237 79.165ZM80.7944 51.394C86.465 51.394 90.8872 53.6157 94.061 58.0591C96.452 61.4022 97.6475 65.4964 97.6475 70.3418C97.6475 75.2718 96.4731 79.3766 94.1245 82.6562C91.0353 86.9515 86.5708 89.0991 80.731 89.0991C75.7163 89.0991 71.675 87.4593 68.6069 84.1797C65.4331 80.7731 63.8462 76.1605 63.8462 70.3418C63.8462 64.8828 65.3273 60.4289 68.2896 56.98C71.4634 53.256 75.6317 51.394 80.7944 51.394ZM80.6675 54.5044C77.7899 54.5044 75.3249 55.5623 73.2725 57.6782C70.4583 60.5347 69.0513 64.703 69.0513 70.1831C69.0513 74.6053 70.2256 78.361 72.5742 81.4502C74.8594 84.4759 77.5889 85.9888 80.7627 85.9888C83.6615 85.9888 86.2323 84.6663 88.4751 82.0215C91.12 78.8688 92.4424 74.9121 92.4424 70.1514C92.4424 65.7503 91.4797 62.1322 89.5542 59.2969C87.3748 56.1019 84.4126 54.5044 80.6675 54.5044ZM109.994 52.6953V49.1724C109.994 45.4696 111.041 42.4121 113.136 40C115.104 37.7572 117.812 36.6357 121.261 36.6357C123.969 36.6357 126.17 37.2917 127.862 38.6035C129.513 39.8519 130.338 41.4494 130.338 43.396C130.338 44.0731 130.19 44.6761 129.894 45.2051C129.195 46.4746 128.148 47.1094 126.751 47.1094C125.567 47.1094 124.646 46.6227 123.99 45.6494C123.588 45.057 123.387 44.3693 123.387 43.5864C123.387 42.2534 123.948 41.3436 125.069 40.8569C124.286 40.0741 123.059 39.6826 121.388 39.6826C118.933 39.6826 117.092 40.7723 115.865 42.9517C114.977 44.5597 114.532 46.6545 114.532 49.2358V52.6953H124.815V55.8057H114.532V80.2441C114.532 82.3177 114.913 83.6719 115.675 84.3066C116.415 84.9414 118.023 85.3223 120.499 85.4492V87.7979H103.9V85.4492C106.46 85.3434 108.121 84.9308 108.883 84.2114C109.623 83.5343 109.994 82.2119 109.994 80.2441V55.8057H102.599V52.6953H109.994ZM139.891 52.6953V49.1724C139.891 45.4696 140.938 42.4121 143.033 40C145.001 37.7572 147.709 36.6357 151.158 36.6357C153.867 36.6357 156.067 37.2917 157.76 38.6035C159.41 39.8519 160.235 41.4494 160.235 43.396C160.235 44.0731 160.087 44.6761 159.791 45.2051C159.093 46.4746 158.045 47.1094 156.649 47.1094C155.464 47.1094 154.544 46.6227 153.888 45.6494C153.486 45.057 153.285 44.3693 153.285 43.5864C153.285 42.2534 153.845 41.3436 154.967 40.8569C154.184 40.0741 152.957 39.6826 151.285 39.6826C148.831 39.6826 146.99 40.7723 145.763 42.9517C144.874 44.5597 144.43 46.6545 144.43 49.2358V52.6953H154.713V55.8057H144.43V80.2441C144.43 82.3177 144.811 83.6719 145.572 84.3066C146.313 84.9414 147.921 85.3223 150.396 85.4492V87.7979H133.797V85.4492C136.358 85.3434 138.019 84.9308 138.78 84.2114C139.521 83.5343 139.891 82.2119 139.891 80.2441V55.8057H132.496V52.6953H139.891ZM169.503 69.8975V70.4053C169.503 73.8118 170.18 76.7529 171.534 79.2285C173.798 83.3757 177.279 85.4492 181.976 85.4492C187.181 85.4492 191.519 82.7832 194.989 77.4512L197.052 79.5142C193.37 85.9041 188.207 89.0991 181.563 89.0991C175.724 89.0991 171.206 86.9092 168.011 82.5293C165.62 79.2497 164.425 75.1978 164.425 70.3735C164.425 65.4012 165.758 61.1694 168.424 57.6782C171.661 53.4888 175.925 51.394 181.214 51.394C184.917 51.394 188.144 52.4414 190.895 54.5361C193.984 56.8636 195.994 60.048 196.925 64.0894C197.263 65.5493 197.433 67.0516 197.433 68.5962V69.8975H169.503ZM191.974 66.7871C191.804 63.1901 191.011 60.4606 189.593 58.5986C187.499 55.8268 184.727 54.4409 181.278 54.4409C178.041 54.4409 175.279 55.8268 172.994 58.5986C171.174 60.7992 170.053 63.5286 169.63 66.7871H191.974ZM210.445 69.8975V70.4053C210.445 73.8118 211.122 76.7529 212.477 79.2285C214.741 83.3757 218.221 85.4492 222.918 85.4492C228.124 85.4492 232.461 82.7832 235.931 77.4512L237.994 79.5142C234.312 85.9041 229.15 89.0991 222.506 89.0991C216.666 89.0991 212.149 86.9092 208.954 82.5293C206.563 79.2497 205.367 75.1978 205.367 70.3735C205.367 65.4012 206.7 61.1694 209.366 57.6782C212.604 53.4888 216.867 51.394 222.157 51.394C225.86 51.394 229.086 52.4414 231.837 54.5361C234.926 56.8636 236.936 60.048 237.867 64.0894C238.206 65.5493 238.375 67.0516 238.375 68.5962V69.8975H210.445ZM232.916 66.7871C232.747 63.1901 231.953 60.4606 230.536 58.5986C228.441 55.8268 225.669 54.4409 222.22 54.4409C218.983 54.4409 216.222 55.8268 213.937 58.5986C212.117 60.7992 210.995 63.5286 210.572 66.7871H232.916Z" fill="white"/>
<path d="M58.3237 79.165L58.7684 79.3937L58.9325 79.0746L58.6827 78.817L58.3237 79.165ZM33.3774 86.1792L33.6619 85.768L33.6604 85.767L33.3774 86.1792ZM29.4736 58.1543L29.8758 58.4513L29.8767 58.4501L29.4736 58.1543ZM38.1064 52.1558L37.9691 51.675L37.9654 51.6761L38.1064 52.1558ZM53.0552 54.3457L52.744 54.7371L52.7474 54.7398L53.0552 54.3457ZM55.9434 62.0581L56.3949 62.2731L56.399 62.2639L55.9434 62.0581ZM49.8813 62.6294L50.2933 62.3456L50.285 62.3344L49.8813 62.6294ZM50.8335 57.583L51.0607 58.0284L51.5551 57.7761L51.2528 57.3107L50.8335 57.583ZM34.2344 59.3604L33.8334 59.0616L33.8322 59.0632L34.2344 59.3604ZM32.8379 78.5303L33.2877 78.3119L33.2867 78.3099L32.8379 78.5303ZM37.2495 83.6401L36.9765 84.059L36.9799 84.0612L37.2495 83.6401ZM56.2925 77.0703L56.6514 76.7222L56.194 76.2505L55.8613 76.8172L56.2925 77.0703ZM57.8791 78.9363C56.2064 82.1882 54.1409 84.5985 51.6946 86.197C49.2511 87.7938 46.3994 88.5991 43.1211 88.5991V89.5991C46.5713 89.5991 49.6176 88.7488 52.2416 87.0342C54.8629 85.3213 57.0345 82.7646 58.7684 79.3937L57.8791 78.9363ZM43.1211 88.5991C39.533 88.5991 36.386 87.6523 33.6619 85.768L33.093 86.5904C35.9971 88.5993 39.3459 89.5991 43.1211 89.5991V88.5991ZM33.6604 85.767C28.8305 82.4515 26.3872 77.2914 26.3872 70.1831H25.3872C25.3872 77.5475 27.9374 83.0514 33.0945 86.5914L33.6604 85.767ZM26.3872 70.1831C26.3872 65.4874 27.5597 61.5873 29.8758 58.4513L29.0714 57.8572C26.6057 61.1959 25.3872 65.315 25.3872 70.1831H26.3872ZM29.8767 58.4501C31.9682 55.6 34.7525 53.6634 38.2475 52.6354L37.9654 51.6761C34.2664 52.764 31.2955 54.8264 29.0705 57.8585L29.8767 58.4501ZM38.2438 52.6365C39.9761 52.1416 41.7496 51.894 43.5654 51.894V50.894C41.6573 50.894 39.7914 51.1543 37.9691 51.675L38.2438 52.6365ZM43.5654 51.894C47.3287 51.894 50.3749 52.854 52.7441 54.7371L53.3663 53.9543C50.7843 51.9019 47.504 50.894 43.5654 50.894V51.894ZM52.7474 54.7398C54.8994 56.4203 55.8877 58.1626 55.8877 59.9634H56.8877C56.8877 57.744 55.6543 55.7411 53.3629 53.9516L52.7474 54.7398ZM55.8877 59.9634C55.8877 60.6351 55.7538 61.263 55.4877 61.8523L56.399 62.2639C56.7253 61.5414 56.8877 60.7728 56.8877 59.9634H55.8877ZM55.4919 61.8431C55.2084 62.4386 54.8415 62.8589 54.4013 63.1335C53.9606 63.4084 53.4136 63.5576 52.7378 63.5576V64.5576C53.5643 64.5576 54.3027 64.3736 54.9305 63.982C55.5589 63.59 56.0436 63.0106 56.3948 62.2731L55.4919 61.8431ZM52.7378 63.5576C51.6384 63.5576 50.8473 63.1502 50.2931 62.3457L49.4696 62.913C50.2273 64.0129 51.3404 64.5576 52.7378 64.5576V63.5576ZM50.285 62.3344C49.9529 61.8799 49.7783 61.3304 49.7783 60.6616H48.7783C48.7783 61.5163 49.0057 62.2786 49.4777 62.9244L50.285 62.3344ZM49.7783 60.6616C49.7783 59.258 50.2444 58.4449 51.0607 58.0284L50.6063 57.1376C49.349 57.7791 48.7783 59.0184 48.7783 60.6616H49.7783ZM51.2528 57.3107C49.7923 55.062 47.1913 54.0044 43.6289 54.0044V55.0044C47.0066 55.0044 49.2087 55.9992 50.4142 57.8554L51.2528 57.3107ZM43.6289 54.0044C39.6113 54.0044 36.3346 55.7048 33.8334 59.0616L34.6353 59.6591C36.9584 56.5413 39.9447 55.0044 43.6289 55.0044V54.0044ZM33.8322 59.0632C31.6599 62.0036 30.5923 65.7226 30.5923 70.1831H31.5923C31.5923 65.8838 32.6194 62.3877 34.6365 59.6575L33.8322 59.0632ZM30.5923 70.1831C30.5923 73.4387 31.1853 76.2994 32.3891 78.7507L33.2867 78.3099C32.163 76.0216 31.5923 73.3175 31.5923 70.1831H30.5923ZM32.3881 78.7486C33.4825 81.0031 35.0114 82.7784 36.9765 84.059L37.5225 83.2212C35.7213 82.0474 34.3092 80.4162 33.2877 78.3119L32.3881 78.7486ZM36.9799 84.0612C38.9469 85.321 41.1465 85.9492 43.5654 85.9492V84.9492C41.3294 84.9492 39.3184 84.3714 37.5192 83.2191L36.9799 84.0612ZM43.5654 85.9492C48.993 85.9492 53.3798 83.0189 56.7237 77.3235L55.8613 76.8172C52.6459 82.2936 48.548 84.9492 43.5654 84.9492V85.9492ZM55.9335 77.4184L57.9648 79.5131L58.6827 78.817L56.6514 76.7222L55.9335 77.4184ZM94.061 58.0591L93.6542 58.3497L93.6543 58.3499L94.061 58.0591ZM94.1245 82.6562L94.5304 82.9482L94.531 82.9474L94.1245 82.6562ZM68.6069 84.1797L68.2411 84.5205L68.2418 84.5213L68.6069 84.1797ZM68.2896 56.98L68.6689 57.3058L68.6701 57.3043L68.2896 56.98ZM73.2725 57.6782L73.6287 58.0291L73.6314 58.0264L73.2725 57.6782ZM72.5742 81.4502L72.9732 81.1489L72.9722 81.1476L72.5742 81.4502ZM88.4751 82.0215L88.8564 82.3449L88.8582 82.3428L88.4751 82.0215ZM89.5542 59.2969L89.9678 59.016L89.9673 59.0151L89.5542 59.2969ZM80.7944 51.894C86.3109 51.894 90.5784 54.0436 93.6542 58.3497L94.4679 57.7685C91.196 53.1878 86.6191 50.894 80.7944 50.894V51.894ZM93.6543 58.3499C95.9743 61.5938 97.1475 65.5815 97.1475 70.3418H98.1475C98.1475 65.4113 96.9296 61.2105 94.4677 57.7682L93.6543 58.3499ZM97.1475 70.3418C97.1475 75.191 95.9934 79.1878 93.718 82.3651L94.531 82.9474C96.9529 79.5655 98.1475 75.3526 98.1475 70.3418H97.1475ZM93.7186 82.3643C90.7341 86.5139 86.4293 88.5991 80.731 88.5991V89.5991C86.7123 89.5991 91.3365 87.3891 94.5304 82.9482L93.7186 82.3643ZM80.731 88.5991C75.8369 88.5991 71.934 87.0043 68.9721 83.8381L68.2418 84.5213C71.4159 87.9143 75.5958 89.5991 80.731 89.5991V88.5991ZM68.9728 83.8389C65.9053 80.5464 64.3462 76.067 64.3462 70.3418H63.3462C63.3462 76.254 64.9609 80.9998 68.2411 84.5205L68.9728 83.8389ZM64.3462 70.3418C64.3462 64.9772 65.7994 60.6466 68.6689 57.3058L67.9103 56.6542C64.8552 60.2112 63.3462 64.7884 63.3462 70.3418H64.3462ZM68.6701 57.3043C71.7431 53.6986 75.7689 51.894 80.7944 51.894V50.894C75.4944 50.894 71.1837 52.8134 67.909 56.6557L68.6701 57.3043ZM80.6675 54.0044C77.651 54.0044 75.0576 55.1198 72.9136 57.3301L73.6314 58.0264C75.5922 56.0049 77.9288 55.0044 80.6675 55.0044V54.0044ZM72.9163 57.3273C69.9804 60.3073 68.5513 64.6208 68.5513 70.1831H69.5513C69.5513 64.7851 70.9362 60.762 73.6286 58.0291L72.9163 57.3273ZM68.5513 70.1831C68.5513 74.6986 69.7524 78.5647 72.1762 81.7528L72.9722 81.1476C70.6988 78.1573 69.5513 74.512 69.5513 70.1831H68.5513ZM72.1752 81.7515C74.5342 84.875 77.4007 86.4888 80.7627 86.4888V85.4888C77.7771 85.4888 75.1846 84.0768 72.9732 81.1489L72.1752 81.7515ZM80.7627 86.4888C83.8374 86.4888 86.5391 85.0775 88.8564 82.3449L88.0938 81.6981C85.9254 84.2551 83.4855 85.4888 80.7627 85.4888V86.4888ZM88.8582 82.3428C91.5902 79.0863 92.9424 75.0102 92.9424 70.1514H91.9424C91.9424 74.814 90.6497 78.6514 88.092 81.7001L88.8582 82.3428ZM92.9424 70.1514C92.9424 65.6785 91.9636 61.9548 89.9678 59.016L89.1406 59.5778C90.9957 62.3095 91.9424 65.8222 91.9424 70.1514H92.9424ZM89.9673 59.0151C87.6984 55.6889 84.5842 54.0044 80.6675 54.0044V55.0044C84.2409 55.0044 87.0513 56.5149 89.1411 59.5786L89.9673 59.0151ZM109.994 52.6953V53.1953H110.494V52.6953H109.994ZM113.136 40L112.76 39.6702L112.758 39.6722L113.136 40ZM127.862 38.6035L127.556 38.9988L127.561 39.0023L127.862 38.6035ZM129.894 45.2051L129.457 44.9608L129.455 44.9641L129.894 45.2051ZM123.99 45.6494L124.405 45.37L124.404 45.3687L123.99 45.6494ZM125.069 40.8569L125.268 41.3156L125.943 41.023L125.423 40.5034L125.069 40.8569ZM115.865 42.9517L115.43 42.7063L115.428 42.7098L115.865 42.9517ZM114.532 52.6953H114.032V53.1953H114.532V52.6953ZM124.815 52.6953H125.315V52.1953H124.815V52.6953ZM124.815 55.8057V56.3057H125.315V55.8057H124.815ZM114.532 55.8057V55.3057H114.032V55.8057H114.532ZM115.675 84.3066L116 83.927L115.995 83.9225L115.675 84.3066ZM120.499 85.4492H120.999V84.9742L120.525 84.9499L120.499 85.4492ZM120.499 87.7979V88.2979H120.999V87.7979H120.499ZM103.9 87.7979H103.4V88.2979H103.9V87.7979ZM103.9 85.4492L103.879 84.9496L103.4 84.9695V85.4492H103.9ZM108.883 84.2114L108.545 83.8424L108.54 83.8479L108.883 84.2114ZM109.994 55.8057H110.494V55.3057H109.994V55.8057ZM102.599 55.8057H102.099V56.3057H102.599V55.8057ZM102.599 52.6953V52.1953H102.099V52.6953H102.599ZM110.494 52.6953V49.1724H109.494V52.6953H110.494ZM110.494 49.1724C110.494 45.5697 111.51 42.6348 113.513 40.3278L112.758 39.6722C110.572 42.1895 109.494 45.3694 109.494 49.1724H110.494ZM113.512 40.3298C115.369 38.2125 117.931 37.1357 121.261 37.1357V36.1357C117.693 36.1357 114.838 37.3018 112.76 39.6702L113.512 40.3298ZM121.261 37.1357C123.888 37.1357 125.972 37.771 127.556 38.9987L128.169 38.2083C126.367 36.8123 124.05 36.1357 121.261 36.1357V37.1357ZM127.561 39.0023C129.095 40.1631 129.838 41.6172 129.838 43.396H130.838C130.838 41.2816 129.93 39.5407 128.164 38.2047L127.561 39.0023ZM129.838 43.396C129.838 43.9977 129.707 44.5149 129.457 44.9608L130.33 45.4494C130.673 44.8374 130.838 44.1484 130.838 43.396H129.838ZM129.455 44.9641C129.141 45.5362 128.761 45.9415 128.325 46.2057C127.89 46.4694 127.371 46.6094 126.751 46.6094V47.6094C127.528 47.6094 128.231 47.432 128.844 47.0609C129.455 46.6904 129.948 46.1435 130.332 45.446L129.455 44.9641ZM126.751 46.6094C125.731 46.6094 124.967 46.2038 124.405 45.37L123.576 45.9288C124.326 47.0416 125.402 47.6094 126.751 47.6094V46.6094ZM124.404 45.3687C124.063 44.8668 123.887 44.279 123.887 43.5864H122.887C122.887 44.4596 123.113 45.2471 123.576 45.9302L124.404 45.3687ZM123.887 43.5864C123.887 42.9898 124.012 42.5253 124.233 42.1666C124.453 41.8109 124.788 41.5243 125.268 41.3156L124.87 40.3983C124.23 40.6763 123.724 41.0878 123.382 41.642C123.042 42.1931 122.887 42.8501 122.887 43.5864H123.887ZM125.423 40.5034C124.508 39.5883 123.125 39.1826 121.388 39.1826V40.1826C122.993 40.1826 124.065 40.5598 124.716 41.2105L125.423 40.5034ZM121.388 39.1826C118.748 39.1826 116.743 40.3734 115.43 42.7063L116.301 43.197C117.442 41.1712 119.118 40.1826 121.388 40.1826V39.1826ZM115.428 42.7098C114.485 44.4159 114.032 46.6023 114.032 49.2358H115.032C115.032 46.7067 115.468 44.7036 116.303 43.1935L115.428 42.7098ZM114.032 49.2358V52.6953H115.032V49.2358H114.032ZM114.532 53.1953H124.815V52.1953H114.532V53.1953ZM124.315 52.6953V55.8057H125.315V52.6953H124.315ZM124.815 55.3057H114.532V56.3057H124.815V55.3057ZM114.032 55.8057V80.2441H115.032V55.8057H114.032ZM114.032 80.2441C114.032 81.3072 114.129 82.2137 114.337 82.9503C114.543 83.6855 114.87 84.2868 115.355 84.6908L115.995 83.9225C115.718 83.6918 115.473 83.2985 115.299 82.6796C115.126 82.062 115.032 81.2546 115.032 80.2441H114.032ZM115.349 84.6863C115.809 85.0798 116.486 85.3572 117.321 85.5549C118.165 85.7548 119.219 85.8842 120.473 85.9486L120.525 84.9499C119.304 84.8873 118.315 84.7628 117.552 84.5818C116.778 84.3986 116.282 84.1682 116 83.927L115.349 84.6863ZM119.999 85.4492V87.7979H120.999V85.4492H119.999ZM120.499 87.2979H103.9V88.2979H120.499V87.2979ZM104.4 87.7979V85.4492H103.4V87.7979H104.4ZM103.921 85.9488C105.219 85.8951 106.311 85.763 107.186 85.5457C108.053 85.3304 108.755 85.0199 109.226 84.5749L108.54 83.8479C108.249 84.1223 107.739 84.3779 106.945 84.5752C106.159 84.7704 105.141 84.8975 103.879 84.9496L103.921 85.9488ZM109.22 84.5804C110.128 83.7503 110.494 82.2325 110.494 80.2441H109.494C109.494 82.1913 109.119 83.3184 108.545 83.8424L109.22 84.5804ZM110.494 80.2441V55.8057H109.494V80.2441H110.494ZM109.994 55.3057H102.599V56.3057H109.994V55.3057ZM103.099 55.8057V52.6953H102.099V55.8057H103.099ZM102.599 53.1953H109.994V52.1953H102.599V53.1953ZM139.891 52.6953V53.1953H140.391V52.6953H139.891ZM143.033 40L142.657 39.6702L142.656 39.6722L143.033 40ZM157.76 38.6035L157.453 38.9988L157.458 39.0023L157.76 38.6035ZM159.791 45.2051L159.355 44.9608L159.353 44.9641L159.791 45.2051ZM153.888 45.6494L154.302 45.37L154.301 45.3687L153.888 45.6494ZM154.967 40.8569L155.166 41.3156L155.84 41.023L155.32 40.5034L154.967 40.8569ZM145.763 42.9517L145.327 42.7063L145.325 42.7098L145.763 42.9517ZM144.43 52.6953H143.93V53.1953H144.43V52.6953ZM154.713 52.6953H155.213V52.1953H154.713V52.6953ZM154.713 55.8057V56.3057H155.213V55.8057H154.713ZM144.43 55.8057V55.3057H143.93V55.8057H144.43ZM145.572 84.3066L145.898 83.927L145.892 83.9225L145.572 84.3066ZM150.396 85.4492H150.896V84.9742L150.422 84.9499L150.396 85.4492ZM150.396 87.7979V88.2979H150.896V87.7979H150.396ZM133.797 87.7979H133.297V88.2979H133.797V87.7979ZM133.797 85.4492L133.777 84.9496L133.297 84.9695V85.4492H133.797ZM138.78 84.2114L138.443 83.8424L138.437 83.8479L138.78 84.2114ZM139.891 55.8057H140.391V55.3057H139.891V55.8057ZM132.496 55.8057H131.996V56.3057H132.496V55.8057ZM132.496 52.6953V52.1953H131.996V52.6953H132.496ZM140.391 52.6953V49.1724H139.391V52.6953H140.391ZM140.391 49.1724C140.391 45.5697 141.407 42.6348 143.411 40.3278L142.656 39.6722C140.47 42.1895 139.391 45.3694 139.391 49.1724H140.391ZM143.409 40.3298C145.267 38.2125 147.828 37.1357 151.158 37.1357V36.1357C147.59 36.1357 144.735 37.3018 142.657 39.6702L143.409 40.3298ZM151.158 37.1357C153.785 37.1357 155.869 37.771 157.453 38.9987L158.066 38.2083C156.265 36.8123 153.948 36.1357 151.158 36.1357V37.1357ZM157.458 39.0023C158.993 40.1631 159.735 41.6172 159.735 43.396H160.735C160.735 41.2816 159.828 39.5407 158.061 38.2047L157.458 39.0023ZM159.735 43.396C159.735 43.9977 159.604 44.5149 159.355 44.9608L160.227 45.4494C160.57 44.8374 160.735 44.1484 160.735 43.396H159.735ZM159.353 44.9641C159.038 45.5362 158.659 45.9415 158.223 46.2057C157.788 46.4694 157.269 46.6094 156.649 46.6094V47.6094C157.425 47.6094 158.129 47.432 158.741 47.0609C159.352 46.6904 159.846 46.1435 160.229 45.446L159.353 44.9641ZM156.649 46.6094C155.628 46.6094 154.864 46.2038 154.302 45.37L153.473 45.9288C154.223 47.0416 155.3 47.6094 156.649 47.6094V46.6094ZM154.301 45.3687C153.961 44.8668 153.785 44.279 153.785 43.5864H152.785C152.785 44.4596 153.01 45.2471 153.474 45.9302L154.301 45.3687ZM153.785 43.5864C153.785 42.9898 153.91 42.5253 154.131 42.1666C154.35 41.8109 154.685 41.5243 155.166 41.3156L154.768 40.3983C154.127 40.6763 153.621 41.0878 153.28 41.642C152.94 42.1931 152.785 42.8501 152.785 43.5864H153.785ZM155.32 40.5034C154.405 39.5883 153.023 39.1826 151.285 39.1826V40.1826C152.891 40.1826 153.963 40.5598 154.613 41.2105L155.32 40.5034ZM151.285 39.1826C148.646 39.1826 146.641 40.3734 145.327 42.7063L146.198 43.197C147.339 41.1712 149.016 40.1826 151.285 40.1826V39.1826ZM145.325 42.7098C144.382 44.4159 143.93 46.6023 143.93 49.2358H144.93C144.93 46.7067 145.366 44.7036 146.2 43.1935L145.325 42.7098ZM143.93 49.2358V52.6953H144.93V49.2358H143.93ZM144.43 53.1953H154.713V52.1953H144.43V53.1953ZM154.213 52.6953V55.8057H155.213V52.6953H154.213ZM154.713 55.3057H144.43V56.3057H154.713V55.3057ZM143.93 55.8057V80.2441H144.93V55.8057H143.93ZM143.93 80.2441C143.93 81.3072 144.027 82.2137 144.234 82.9503C144.441 83.6855 144.767 84.2868 145.252 84.6908L145.892 83.9225C145.615 83.6918 145.371 83.2985 145.197 82.6796C145.023 82.062 144.93 81.2546 144.93 80.2441H143.93ZM145.247 84.6863C145.706 85.0798 146.384 85.3572 147.219 85.5549C148.063 85.7548 149.116 85.8842 150.371 85.9486L150.422 84.9499C149.201 84.8873 148.213 84.7628 147.449 84.5818C146.675 84.3986 146.179 84.1682 145.898 83.927L145.247 84.6863ZM149.896 85.4492V87.7979H150.896V85.4492H149.896ZM150.396 87.2979H133.797V88.2979H150.396V87.2979ZM134.297 87.7979V85.4492H133.297V87.7979H134.297ZM133.818 85.9488C135.117 85.8951 136.209 85.763 137.084 85.5457C137.951 85.3304 138.652 85.0199 139.124 84.5749L138.437 83.8479C138.146 84.1223 137.637 84.3779 136.843 84.5752C136.057 84.7704 135.038 84.8975 133.777 84.9496L133.818 85.9488ZM139.118 84.5804C140.026 83.7503 140.391 82.2325 140.391 80.2441H139.391C139.391 82.1913 139.016 83.3184 138.443 83.8424L139.118 84.5804ZM140.391 80.2441V55.8057H139.391V80.2441H140.391ZM139.891 55.3057H132.496V56.3057H139.891V55.3057ZM132.996 55.8057V52.6953H131.996V55.8057H132.996ZM132.496 53.1953H139.891V52.1953H132.496V53.1953ZM169.503 69.8975V69.3975H169.003V69.8975H169.503ZM171.534 79.2285L171.973 78.9889L171.973 78.9886L171.534 79.2285ZM194.989 77.4512L195.342 77.0976L194.906 76.6615L194.57 77.1784L194.989 77.4512ZM197.052 79.5142L197.485 79.7638L197.676 79.4316L197.405 79.1606L197.052 79.5142ZM168.011 82.5293L167.607 82.8238L167.607 82.824L168.011 82.5293ZM168.424 57.6782L168.028 57.3725L168.026 57.3748L168.424 57.6782ZM190.895 54.5361L190.592 54.9339L190.594 54.9355L190.895 54.5361ZM196.925 64.0894L196.438 64.2016L196.438 64.2023L196.925 64.0894ZM197.433 69.8975V70.3975H197.933V69.8975H197.433ZM191.974 66.7871V67.2871H192.498L192.473 66.7636L191.974 66.7871ZM189.593 58.5986L189.194 58.9001L189.195 58.9015L189.593 58.5986ZM172.994 58.5986L173.379 58.9173L173.38 58.9167L172.994 58.5986ZM169.63 66.7871L169.134 66.7227L169.061 67.2871H169.63V66.7871ZM169.003 69.8975V70.4053H170.003V69.8975H169.003ZM169.003 70.4053C169.003 73.8784 169.694 76.9055 171.096 79.4685L171.973 78.9886C170.666 76.6004 170.003 73.7453 170.003 70.4053H169.003ZM171.095 79.4681C172.263 81.607 173.758 83.2339 175.587 84.3236C177.416 85.4134 179.552 85.9492 181.976 85.9492V84.9492C179.703 84.9492 177.75 84.4482 176.099 83.4645C174.447 82.4806 173.069 80.9972 171.973 78.9889L171.095 79.4681ZM181.976 85.9492C187.389 85.9492 191.869 83.1616 195.408 77.7239L194.57 77.1784C191.168 82.4049 186.973 84.9492 181.976 84.9492V85.9492ZM194.635 77.8047L196.698 79.8677L197.405 79.1606L195.342 77.0976L194.635 77.8047ZM196.619 79.2645C193.014 85.5202 188.006 88.5991 181.563 88.5991V89.5991C188.409 89.5991 193.726 86.288 197.485 79.7638L196.619 79.2645ZM181.563 88.5991C175.869 88.5991 171.508 86.4743 168.415 82.2346L167.607 82.824C170.905 87.3441 175.578 89.5991 181.563 89.5991V88.5991ZM168.415 82.2347C166.098 79.0559 164.925 75.1124 164.925 70.3735H163.925C163.925 75.2831 165.143 79.4435 167.607 82.8238L168.415 82.2347ZM164.925 70.3735C164.925 65.4957 166.23 61.3744 168.821 57.9817L168.026 57.3748C165.285 60.9645 163.925 65.3067 163.925 70.3735H164.925ZM168.819 57.9839C171.962 53.9169 176.08 51.894 181.214 51.894V50.894C175.77 50.894 171.36 53.0606 168.028 57.3725L168.819 57.9839ZM181.214 51.894C184.816 51.894 187.934 52.9103 190.592 54.9339L191.197 54.1383C188.353 51.9725 185.018 50.894 181.214 50.894V51.894ZM190.594 54.9355C193.582 57.1868 195.531 60.266 196.438 64.2016L197.412 63.9771C196.457 59.8301 194.386 56.5404 191.195 54.1368L190.594 54.9355ZM196.438 64.2023C196.767 65.6241 196.933 67.0884 196.933 68.5962H197.933C197.933 67.0147 197.759 65.4745 197.412 63.9764L196.438 64.2023ZM196.933 68.5962V69.8975H197.933V68.5962H196.933ZM197.433 69.3975H169.503V70.3975H197.433V69.3975ZM192.473 66.7636C192.301 63.1162 191.495 60.2711 189.991 58.2957L189.195 58.9015C190.527 60.6501 191.307 63.264 191.474 66.8106L192.473 66.7636ZM189.992 58.2972C187.804 55.4014 184.885 53.9409 181.278 53.9409V54.9409C184.569 54.9409 187.193 56.2522 189.194 58.9001L189.992 58.2972ZM181.278 53.9409C177.874 53.9409 174.977 55.4079 172.608 58.2806L173.38 58.9167C175.582 56.2458 178.207 54.9409 181.278 54.9409V53.9409ZM172.609 58.28C170.72 60.5636 169.567 63.3852 169.134 66.7227L170.126 66.8515C170.539 63.6721 171.628 61.0347 173.379 58.9173L172.609 58.28ZM169.63 67.2871H191.974V66.2871H169.63V67.2871ZM210.445 69.8975V69.3975H209.945V69.8975H210.445ZM212.477 79.2285L212.915 78.9889L212.915 78.9886L212.477 79.2285ZM235.931 77.4512L236.285 77.0976L235.849 76.6615L235.512 77.1784L235.931 77.4512ZM237.994 79.5142L238.427 79.7638L238.619 79.4316L238.348 79.1606L237.994 79.5142ZM208.954 82.5293L208.55 82.8238L208.55 82.824L208.954 82.5293ZM209.366 57.6782L208.971 57.3725L208.969 57.3748L209.366 57.6782ZM231.837 54.5361L231.534 54.9339L231.536 54.9355L231.837 54.5361ZM237.867 64.0894L237.38 64.2016L237.38 64.2023L237.867 64.0894ZM238.375 69.8975V70.3975H238.875V69.8975H238.375ZM232.916 66.7871V67.2871H233.44L233.415 66.7636L232.916 66.7871ZM230.536 58.5986L230.137 58.9001L230.138 58.9015L230.536 58.5986ZM213.937 58.5986L214.322 58.9173L214.322 58.9167L213.937 58.5986ZM210.572 66.7871L210.076 66.7227L210.003 67.2871H210.572V66.7871ZM209.945 69.8975V70.4053H210.945V69.8975H209.945ZM209.945 70.4053C209.945 73.8784 210.636 76.9055 212.038 79.4685L212.915 78.9886C211.609 76.6004 210.945 73.7453 210.945 70.4053H209.945ZM212.038 79.4681C213.205 81.607 214.7 83.2339 216.529 84.3236C218.358 85.4134 220.494 85.9492 222.918 85.9492V84.9492C220.645 84.9492 218.692 84.4482 217.041 83.4645C215.389 82.4806 214.012 80.9972 212.915 78.9889L212.038 79.4681ZM222.918 85.9492C228.332 85.9492 232.811 83.1616 236.35 77.7239L235.512 77.1784C232.111 82.4049 227.915 84.9492 222.918 84.9492V85.9492ZM235.578 77.8047L237.641 79.8677L238.348 79.1606L236.285 77.0976L235.578 77.8047ZM237.561 79.2645C233.957 85.5202 228.948 88.5991 222.506 88.5991V89.5991C229.351 89.5991 234.668 86.288 238.427 79.7638L237.561 79.2645ZM222.506 88.5991C216.811 88.5991 212.45 86.4743 209.358 82.2346L208.55 82.824C211.847 87.3441 216.521 89.5991 222.506 89.5991V88.5991ZM209.358 82.2347C207.04 79.0559 205.867 75.1124 205.867 70.3735H204.867C204.867 75.2831 206.085 79.4435 208.55 82.8238L209.358 82.2347ZM205.867 70.3735C205.867 65.4957 207.173 61.3744 209.764 57.9817L208.969 57.3748C206.228 60.9645 204.867 65.3067 204.867 70.3735H205.867ZM209.762 57.9839C212.905 53.9169 217.022 51.894 222.157 51.894V50.894C216.712 50.894 212.302 53.0606 208.971 57.3725L209.762 57.9839ZM222.157 51.894C225.758 51.894 228.877 52.9103 231.534 54.9339L232.14 54.1383C229.296 51.9725 225.961 50.894 222.157 50.894V51.894ZM231.536 54.9355C234.524 57.1868 236.473 60.266 237.38 64.2016L238.354 63.9771C237.399 59.8301 235.328 56.5404 232.138 54.1368L231.536 54.9355ZM237.38 64.2023C237.71 65.6241 237.875 67.0884 237.875 68.5962H238.875C238.875 67.0147 238.702 65.4745 238.354 63.9764L237.38 64.2023ZM237.875 68.5962V69.8975H238.875V68.5962H237.875ZM238.375 69.3975H210.445V70.3975H238.375V69.3975ZM233.415 66.7636C233.244 63.1162 232.437 60.2711 230.933 58.2957L230.138 58.9015C231.469 60.6501 232.25 63.264 232.417 66.8106L233.415 66.7636ZM230.935 58.2972C228.746 55.4014 225.827 53.9409 222.22 53.9409V54.9409C225.511 54.9409 228.136 56.2522 230.137 58.9001L230.935 58.2972ZM222.22 53.9409C218.816 53.9409 215.919 55.4079 213.551 58.2806L214.322 58.9167C216.524 56.2458 219.15 54.9409 222.22 54.9409V53.9409ZM213.551 58.28C211.663 60.5636 210.51 63.3852 210.076 66.7227L211.068 66.8515C211.481 63.6721 212.571 61.0347 214.322 58.9173L213.551 58.28ZM210.572 67.2871H232.916V66.2871H210.572V67.2871Z" fill="white" mask="url(#path-2-outside-1_514_913)"/>
<mask id="path-4-outside-2_514_913" maskUnits="userSpaceOnUse" x="267.901" y="35.7979" width="156" height="54" fill="black">
<rect fill="white" x="267.901" y="35.7979" width="156" height="54"/>
<path d="M301.107 79.165C297.7 85.7878 292.633 89.0991 285.904 89.0991C282.222 89.0991 278.974 88.1258 276.16 86.1792C271.167 82.7515 268.67 77.4194 268.67 70.1831C268.67 65.4012 269.866 61.3916 272.257 58.1543C274.415 55.2132 277.292 53.2137 280.889 52.1558C282.667 51.6479 284.486 51.394 286.348 51.394C290.199 51.394 293.362 52.3779 295.838 54.3457C298.06 56.0807 299.171 57.9533 299.171 59.9634C299.171 60.7039 299.022 61.4022 298.726 62.0581C298.091 63.3911 297.023 64.0576 295.521 64.0576C294.272 64.0576 293.32 63.5815 292.664 62.6294C292.262 62.0793 292.061 61.4233 292.061 60.6616C292.061 59.1382 292.58 58.112 293.616 57.583C292.283 55.5306 289.882 54.5044 286.412 54.5044C282.561 54.5044 279.429 56.123 277.017 59.3604C274.923 62.1956 273.875 65.8032 273.875 70.1831C273.875 73.3781 274.457 76.1605 275.621 78.5303C276.679 80.7096 278.149 82.4129 280.032 83.6401C281.916 84.8462 284.021 85.4492 286.348 85.4492C291.553 85.4492 295.796 82.6562 299.075 77.0703L301.107 79.165ZM335.003 87.7979L334.337 82.6562C330.888 86.9515 326.91 89.0991 322.403 89.0991C317.663 89.0991 314.236 87.2054 312.12 83.418C310.85 81.154 310.216 78.2764 310.216 74.7852V59.646C310.216 57.7205 309.824 56.4827 309.041 55.9326C308.385 55.4883 306.83 55.1921 304.376 55.0439V52.6953C307.825 52.6742 311.284 52.2404 314.754 51.394V74.5312C314.754 78.1071 315.6 80.8577 317.293 82.7832C318.774 84.4759 320.806 85.3223 323.387 85.3223C327.513 85.3223 331.057 82.8996 334.019 78.0542V59.646C334.019 57.6571 333.585 56.3981 332.718 55.8691C332.083 55.4671 330.581 55.1921 328.211 55.0439V52.6953C332.041 52.6742 335.511 52.2404 338.621 51.394V79.292C338.621 81.7253 338.981 83.3651 339.7 84.2114C340.272 84.8885 341.584 85.3011 343.636 85.4492V87.7979H335.003ZM351.983 88.5913V45.3638C351.983 43.5653 351.592 42.3698 350.809 41.7773C350.089 41.2272 348.555 40.8781 346.207 40.73V38.3813C350.523 38.339 353.961 37.9053 356.522 37.0801V57.4561C357.368 55.8691 358.627 54.5573 360.299 53.5205C362.541 52.1029 364.985 51.394 367.63 51.394C372.433 51.394 376.39 53.383 379.5 57.3608C382.166 60.8097 383.499 64.9569 383.499 69.8022C383.499 74.5207 382.547 78.4985 380.643 81.7358C377.744 86.6447 373.258 89.0991 367.186 89.0991C363.991 89.0991 361.304 88.3691 359.124 86.9092C357.96 86.1475 357.072 85.1636 356.458 83.9575L354.903 88.5913H351.983ZM366.837 55.0439C364.678 55.0439 362.658 55.8057 360.775 57.3291C359.336 58.514 358.31 59.8999 357.696 61.4868C356.871 63.6027 356.458 66.4486 356.458 70.0244C356.458 74.6159 356.934 77.9801 357.886 80.1172C358.86 82.3177 360.5 83.894 362.806 84.8462C364.097 85.3752 365.514 85.6396 367.059 85.6396C370.211 85.6396 372.856 84.2114 374.993 81.355C377.236 78.3927 378.358 74.5207 378.358 69.7388C378.358 64.978 376.94 61.1589 374.105 58.2812C371.968 56.123 369.545 55.0439 366.837 55.0439ZM395.465 69.8975V70.4053C395.465 73.8118 396.142 76.7529 397.496 79.2285C399.76 83.3757 403.24 85.4492 407.938 85.4492C413.143 85.4492 417.48 82.7832 420.95 77.4512L423.013 79.5142C419.332 85.9041 414.169 89.0991 407.525 89.0991C401.685 89.0991 397.168 86.9092 393.973 82.5293C391.582 79.2497 390.386 75.1978 390.386 70.3735C390.386 65.4012 391.719 61.1694 394.385 57.6782C397.623 53.4888 401.886 51.394 407.176 51.394C410.879 51.394 414.105 52.4414 416.856 54.5361C419.945 56.8636 421.955 60.048 422.886 64.0894C423.225 65.5493 423.394 67.0516 423.394 68.5962V69.8975H395.465ZM417.935 66.7871C417.766 63.1901 416.973 60.4606 415.555 58.5986C413.46 55.8268 410.688 54.4409 407.239 54.4409C404.002 54.4409 401.241 55.8268 398.956 58.5986C397.136 60.7992 396.015 63.5286 395.591 66.7871H417.935Z"/>
</mask>
<path d="M301.107 79.165C297.7 85.7878 292.633 89.0991 285.904 89.0991C282.222 89.0991 278.974 88.1258 276.16 86.1792C271.167 82.7515 268.67 77.4194 268.67 70.1831C268.67 65.4012 269.866 61.3916 272.257 58.1543C274.415 55.2132 277.292 53.2137 280.889 52.1558C282.667 51.6479 284.486 51.394 286.348 51.394C290.199 51.394 293.362 52.3779 295.838 54.3457C298.06 56.0807 299.171 57.9533 299.171 59.9634C299.171 60.7039 299.022 61.4022 298.726 62.0581C298.091 63.3911 297.023 64.0576 295.521 64.0576C294.272 64.0576 293.32 63.5815 292.664 62.6294C292.262 62.0793 292.061 61.4233 292.061 60.6616C292.061 59.1382 292.58 58.112 293.616 57.583C292.283 55.5306 289.882 54.5044 286.412 54.5044C282.561 54.5044 279.429 56.123 277.017 59.3604C274.923 62.1956 273.875 65.8032 273.875 70.1831C273.875 73.3781 274.457 76.1605 275.621 78.5303C276.679 80.7096 278.149 82.4129 280.032 83.6401C281.916 84.8462 284.021 85.4492 286.348 85.4492C291.553 85.4492 295.796 82.6562 299.075 77.0703L301.107 79.165ZM335.003 87.7979L334.337 82.6562C330.888 86.9515 326.91 89.0991 322.403 89.0991C317.663 89.0991 314.236 87.2054 312.12 83.418C310.85 81.154 310.216 78.2764 310.216 74.7852V59.646C310.216 57.7205 309.824 56.4827 309.041 55.9326C308.385 55.4883 306.83 55.1921 304.376 55.0439V52.6953C307.825 52.6742 311.284 52.2404 314.754 51.394V74.5312C314.754 78.1071 315.6 80.8577 317.293 82.7832C318.774 84.4759 320.806 85.3223 323.387 85.3223C327.513 85.3223 331.057 82.8996 334.019 78.0542V59.646C334.019 57.6571 333.585 56.3981 332.718 55.8691C332.083 55.4671 330.581 55.1921 328.211 55.0439V52.6953C332.041 52.6742 335.511 52.2404 338.621 51.394V79.292C338.621 81.7253 338.981 83.3651 339.7 84.2114C340.272 84.8885 341.584 85.3011 343.636 85.4492V87.7979H335.003ZM351.983 88.5913V45.3638C351.983 43.5653 351.592 42.3698 350.809 41.7773C350.089 41.2272 348.555 40.8781 346.207 40.73V38.3813C350.523 38.339 353.961 37.9053 356.522 37.0801V57.4561C357.368 55.8691 358.627 54.5573 360.299 53.5205C362.541 52.1029 364.985 51.394 367.63 51.394C372.433 51.394 376.39 53.383 379.5 57.3608C382.166 60.8097 383.499 64.9569 383.499 69.8022C383.499 74.5207 382.547 78.4985 380.643 81.7358C377.744 86.6447 373.258 89.0991 367.186 89.0991C363.991 89.0991 361.304 88.3691 359.124 86.9092C357.96 86.1475 357.072 85.1636 356.458 83.9575L354.903 88.5913H351.983ZM366.837 55.0439C364.678 55.0439 362.658 55.8057 360.775 57.3291C359.336 58.514 358.31 59.8999 357.696 61.4868C356.871 63.6027 356.458 66.4486 356.458 70.0244C356.458 74.6159 356.934 77.9801 357.886 80.1172C358.86 82.3177 360.5 83.894 362.806 84.8462C364.097 85.3752 365.514 85.6396 367.059 85.6396C370.211 85.6396 372.856 84.2114 374.993 81.355C377.236 78.3927 378.358 74.5207 378.358 69.7388C378.358 64.978 376.94 61.1589 374.105 58.2812C371.968 56.123 369.545 55.0439 366.837 55.0439ZM395.465 69.8975V70.4053C395.465 73.8118 396.142 76.7529 397.496 79.2285C399.76 83.3757 403.24 85.4492 407.938 85.4492C413.143 85.4492 417.48 82.7832 420.95 77.4512L423.013 79.5142C419.332 85.9041 414.169 89.0991 407.525 89.0991C401.685 89.0991 397.168 86.9092 393.973 82.5293C391.582 79.2497 390.386 75.1978 390.386 70.3735C390.386 65.4012 391.719 61.1694 394.385 57.6782C397.623 53.4888 401.886 51.394 407.176 51.394C410.879 51.394 414.105 52.4414 416.856 54.5361C419.945 56.8636 421.955 60.048 422.886 64.0894C423.225 65.5493 423.394 67.0516 423.394 68.5962V69.8975H395.465ZM417.935 66.7871C417.766 63.1901 416.973 60.4606 415.555 58.5986C413.46 55.8268 410.688 54.4409 407.239 54.4409C404.002 54.4409 401.241 55.8268 398.956 58.5986C397.136 60.7992 396.015 63.5286 395.591 66.7871H417.935Z" fill="white"/>
<path d="M301.107 79.165L301.551 79.3937L301.715 79.0746L301.466 78.817L301.107 79.165ZM276.16 86.1792L276.445 85.768L276.443 85.767L276.16 86.1792ZM272.257 58.1543L272.659 58.4513L272.66 58.4501L272.257 58.1543ZM280.889 52.1558L280.752 51.675L280.748 51.6761L280.889 52.1558ZM295.838 54.3457L295.527 54.7371L295.53 54.7398L295.838 54.3457ZM298.726 62.0581L299.178 62.2731L299.182 62.2639L298.726 62.0581ZM292.664 62.6294L293.076 62.3456L293.068 62.3344L292.664 62.6294ZM293.616 57.583L293.844 58.0284L294.338 57.7761L294.036 57.3107L293.616 57.583ZM277.017 59.3604L276.616 59.0616L276.615 59.0632L277.017 59.3604ZM275.621 78.5303L276.071 78.3119L276.07 78.3099L275.621 78.5303ZM280.032 83.6401L279.759 84.059L279.763 84.0612L280.032 83.6401ZM299.075 77.0703L299.434 76.7222L298.977 76.2505L298.644 76.8172L299.075 77.0703ZM300.662 78.9363C298.989 82.1882 296.924 84.5985 294.478 86.197C292.034 87.7938 289.182 88.5991 285.904 88.5991V89.5991C289.354 89.5991 292.401 88.7488 295.025 87.0342C297.646 85.3213 299.817 82.7646 301.551 79.3937L300.662 78.9363ZM285.904 88.5991C282.316 88.5991 279.169 87.6523 276.445 85.768L275.876 86.5904C278.78 88.5993 282.129 89.5991 285.904 89.5991V88.5991ZM276.443 85.767C271.613 82.4515 269.17 77.2914 269.17 70.1831H268.17C268.17 77.5475 270.72 83.0514 275.877 86.5914L276.443 85.767ZM269.17 70.1831C269.17 65.4874 270.343 61.5873 272.659 58.4513L271.854 57.8572C269.389 61.1959 268.17 65.315 268.17 70.1831H269.17ZM272.66 58.4501C274.751 55.6 277.535 53.6634 281.03 52.6354L280.748 51.6761C277.049 52.764 274.078 54.8264 271.853 57.8585L272.66 58.4501ZM281.027 52.6365C282.759 52.1416 284.532 51.894 286.348 51.894V50.894C284.44 50.894 282.574 51.1543 280.752 51.675L281.027 52.6365ZM286.348 51.894C290.112 51.894 293.158 52.854 295.527 54.7371L296.149 53.9543C293.567 51.9019 290.287 50.894 286.348 50.894V51.894ZM295.53 54.7398C297.682 56.4203 298.671 58.1626 298.671 59.9634H299.671C299.671 57.744 298.437 55.7411 296.146 53.9516L295.53 54.7398ZM298.671 59.9634C298.671 60.6351 298.537 61.263 298.271 61.8523L299.182 62.2639C299.508 61.5414 299.671 60.7728 299.671 59.9634H298.671ZM298.275 61.8431C297.991 62.4386 297.624 62.8589 297.184 63.1335C296.743 63.4084 296.196 63.5576 295.521 63.5576V64.5576C296.347 64.5576 297.086 64.3736 297.713 63.982C298.342 63.59 298.826 63.0106 299.178 62.2731L298.275 61.8431ZM295.521 63.5576C294.421 63.5576 293.63 63.1502 293.076 62.3457L292.252 62.913C293.01 64.0129 294.123 64.5576 295.521 64.5576V63.5576ZM293.068 62.3344C292.736 61.8799 292.561 61.3304 292.561 60.6616H291.561C291.561 61.5163 291.789 62.2786 292.261 62.9244L293.068 62.3344ZM292.561 60.6616C292.561 59.258 293.027 58.4449 293.844 58.0284L293.389 57.1376C292.132 57.7791 291.561 59.0184 291.561 60.6616H292.561ZM294.036 57.3107C292.575 55.062 289.974 54.0044 286.412 54.0044V55.0044C289.79 55.0044 291.992 55.9992 293.197 57.8554L294.036 57.3107ZM286.412 54.0044C282.394 54.0044 279.117 55.7048 276.616 59.0616L277.418 59.6591C279.741 56.5413 282.728 55.0044 286.412 55.0044V54.0044ZM276.615 59.0632C274.443 62.0036 273.375 65.7226 273.375 70.1831H274.375C274.375 65.8838 275.402 62.3877 277.419 59.6575L276.615 59.0632ZM273.375 70.1831C273.375 73.4387 273.968 76.2994 275.172 78.7507L276.07 78.3099C274.946 76.0216 274.375 73.3175 274.375 70.1831H273.375ZM275.171 78.7486C276.265 81.0031 277.794 82.7784 279.759 84.059L280.305 83.2212C278.504 82.0474 277.092 80.4162 276.071 78.3119L275.171 78.7486ZM279.763 84.0612C281.73 85.321 283.929 85.9492 286.348 85.9492V84.9492C284.112 84.9492 282.101 84.3714 280.302 83.2191L279.763 84.0612ZM286.348 85.9492C291.776 85.9492 296.163 83.0189 299.507 77.3235L298.644 76.8172C295.429 82.2936 291.331 84.9492 286.348 84.9492V85.9492ZM298.716 77.4184L300.748 79.5131L301.466 78.817L299.434 76.7222L298.716 77.4184ZM335.003 87.7979L334.507 87.8621L334.564 88.2979H335.003V87.7979ZM334.337 82.6562L334.832 82.592L334.682 81.428L333.947 82.3432L334.337 82.6562ZM312.12 83.418L312.556 83.1741L312.556 83.1734L312.12 83.418ZM309.041 55.9326L309.329 55.5235L309.322 55.5187L309.041 55.9326ZM304.376 55.0439H303.876V55.5147L304.346 55.543L304.376 55.0439ZM304.376 52.6953L304.373 52.1953L303.876 52.1984V52.6953H304.376ZM314.754 51.394H315.254V50.7574L314.636 50.9083L314.754 51.394ZM317.293 82.7832L317.669 82.4539L317.669 82.4531L317.293 82.7832ZM334.019 78.0542L334.446 78.315L334.519 78.1949V78.0542H334.019ZM332.718 55.8691L332.45 56.2916L332.458 56.296L332.718 55.8691ZM328.211 55.0439H327.711V55.5137L328.18 55.543L328.211 55.0439ZM328.211 52.6953L328.208 52.1953L327.711 52.1981V52.6953H328.211ZM338.621 51.394H339.121V50.7398L338.49 50.9116L338.621 51.394ZM339.7 84.2114L340.083 83.889L340.081 83.8876L339.7 84.2114ZM343.636 85.4492H344.136V84.984L343.672 84.9505L343.636 85.4492ZM343.636 87.7979V88.2979H344.136V87.7979H343.636ZM335.499 87.7336L334.832 82.592L333.841 82.7205L334.507 87.8621L335.499 87.7336ZM333.947 82.3432C330.569 86.5493 326.725 88.5991 322.403 88.5991V89.5991C327.095 89.5991 331.206 87.3537 334.726 82.9693L333.947 82.3432ZM322.403 88.5991C317.824 88.5991 314.574 86.7863 312.556 83.1741L311.683 83.6618C313.897 87.6245 317.503 89.5991 322.403 89.5991V88.5991ZM312.556 83.1734C311.34 81.0055 310.716 78.2191 310.716 74.7852H309.716C309.716 78.3336 310.36 81.3024 311.684 83.6625L312.556 83.1734ZM310.716 74.7852V59.646H309.716V74.7852H310.716ZM310.716 59.646C310.716 58.6543 310.615 57.8079 310.399 57.1228C310.182 56.4363 309.837 55.8807 309.329 55.5235L308.754 56.3417C309.028 56.5346 309.271 56.8731 309.445 57.4243C309.62 57.977 309.716 58.7122 309.716 59.646H310.716ZM309.322 55.5187C308.905 55.2365 308.267 55.0367 307.476 54.886C306.67 54.7324 305.644 54.6196 304.406 54.5449L304.346 55.543C305.562 55.6164 306.541 55.7258 307.289 55.8684C308.053 56.0139 308.521 56.1844 308.761 56.3466L309.322 55.5187ZM304.876 55.0439V52.6953H303.876V55.0439H304.876ZM304.379 53.1953C307.868 53.1739 311.366 52.735 314.873 51.8798L314.636 50.9083C311.202 51.7457 307.781 52.1744 304.373 52.1953L304.379 53.1953ZM314.254 51.394V74.5312H315.254V51.394H314.254ZM314.254 74.5312C314.254 78.1808 315.118 81.0661 316.918 83.1133L317.669 82.4531C316.083 80.6493 315.254 78.0334 315.254 74.5312H314.254ZM316.917 83.1125C318.507 84.9303 320.685 85.8223 323.387 85.8223V84.8223C320.926 84.8223 319.041 84.0216 317.669 82.454L316.917 83.1125ZM323.387 85.8223C327.749 85.8223 331.431 83.2467 334.446 78.315L333.593 77.7934C330.683 82.5524 327.276 84.8223 323.387 84.8223V85.8223ZM334.519 78.0542V59.646H333.519V78.0542H334.519ZM334.519 59.646C334.519 57.6414 334.093 56.1217 332.978 55.4422L332.458 56.296C333.078 56.6745 333.519 57.6727 333.519 59.646H334.519ZM332.985 55.4467C332.583 55.1915 331.968 55.0091 331.205 54.8695C330.427 54.727 329.437 54.6196 328.242 54.5449L328.18 55.543C329.355 55.6164 330.301 55.7206 331.025 55.8532C331.765 55.9886 332.219 56.1447 332.45 56.2916L332.985 55.4467ZM328.711 55.0439V52.6953H327.711V55.0439H328.711ZM328.214 53.1953C332.079 53.1739 335.593 52.7362 338.753 51.8765L338.49 50.9116C335.429 51.7446 332.003 52.1744 328.208 52.1953L328.214 53.1953ZM338.121 51.394V79.292H339.121V51.394H338.121ZM338.121 79.292C338.121 80.5301 338.213 81.587 338.403 82.4539C338.592 83.3163 338.886 84.0259 339.319 84.5352L340.081 83.8876C339.795 83.5506 339.55 83.0171 339.379 82.2397C339.21 81.4668 339.121 80.4872 339.121 79.292H338.121ZM339.318 84.5339C339.69 84.9746 340.262 85.2854 340.963 85.5057C341.669 85.7278 342.552 85.8723 343.6 85.9479L343.672 84.9505C342.667 84.878 341.868 84.7422 341.263 84.5517C340.651 84.3594 340.282 84.1254 340.083 83.889L339.318 84.5339ZM343.136 85.4492V87.7979H344.136V85.4492H343.136ZM343.636 87.2979H335.003V88.2979H343.636V87.2979ZM351.983 88.5913H351.483V89.0913H351.983V88.5913ZM350.809 41.7773L350.505 42.1745L350.507 42.176L350.809 41.7773ZM346.207 40.73H345.707V41.1994L346.175 41.229L346.207 40.73ZM346.207 38.3813L346.202 37.8814L345.707 37.8862V38.3813H346.207ZM356.522 37.0801H357.022V36.3936L356.368 36.6042L356.522 37.0801ZM356.522 57.4561H356.022L356.963 57.6913L356.522 57.4561ZM360.299 53.5205L360.562 53.9454L360.566 53.9432L360.299 53.5205ZM379.5 57.3608L379.896 57.055L379.894 57.0529L379.5 57.3608ZM380.643 81.7358L381.073 81.9901L381.074 81.9893L380.643 81.7358ZM359.124 86.9092L359.403 86.4938L359.398 86.4908L359.124 86.9092ZM356.458 83.9575L356.904 83.7308L356.363 82.6685L355.984 83.7984L356.458 83.9575ZM354.903 88.5913V89.0913H355.263L355.377 88.7504L354.903 88.5913ZM360.775 57.3291L360.46 56.9404L360.457 56.9431L360.775 57.3291ZM357.696 61.4868L358.162 61.6685L358.162 61.6671L357.696 61.4868ZM357.886 80.1172L358.344 79.9149L358.343 79.9137L357.886 80.1172ZM362.806 84.8462L362.615 85.3084L362.616 85.3088L362.806 84.8462ZM374.993 81.355L374.595 81.0532L374.593 81.0555L374.993 81.355ZM374.105 58.2812L374.461 57.9303L374.46 57.9294L374.105 58.2812ZM352.483 88.5913V45.3638H351.483V88.5913H352.483ZM352.483 45.3638C352.483 43.532 352.092 42.1211 351.11 41.3786L350.507 42.176C351.092 42.6185 351.483 43.5985 351.483 45.3638H352.483ZM351.113 41.3802C350.668 41.0405 350.022 40.7958 349.23 40.6154C348.427 40.4327 347.428 40.306 346.238 40.231L346.175 41.229C347.335 41.3021 348.276 41.424 349.008 41.5904C349.749 41.7591 350.23 41.9641 350.505 42.1745L351.113 41.3802ZM346.707 40.73V38.3813H345.707V40.73H346.707ZM346.212 38.8813C350.552 38.8388 354.047 38.4031 356.675 37.556L356.368 36.6042C353.876 37.4075 350.494 37.8393 346.202 37.8814L346.212 38.8813ZM356.022 37.0801V57.4561H357.022V37.0801H356.022ZM356.963 57.6913C357.764 56.1894 358.958 54.9402 360.562 53.9454L360.035 53.0956C358.296 54.1744 356.972 55.5489 356.08 57.2208L356.963 57.6913ZM360.566 53.9432C362.729 52.5759 365.08 51.894 367.63 51.894V50.894C364.89 50.894 362.354 51.6299 360.031 53.0979L360.566 53.9432ZM367.63 51.894C372.27 51.894 376.085 53.8049 379.106 57.6688L379.894 57.0529C376.695 52.961 372.596 50.894 367.63 50.894V51.894ZM379.105 57.6666C381.695 61.0182 382.999 65.0545 382.999 69.8022H383.999C383.999 64.8592 382.637 60.6013 379.896 57.055L379.105 57.6666ZM382.999 69.8022C382.999 74.4541 382.061 78.3392 380.212 81.4823L381.074 81.9893C383.033 78.6578 383.999 74.5872 383.999 69.8022H382.999ZM380.212 81.4816C377.41 86.2264 373.095 88.5991 367.186 88.5991V89.5991C373.421 89.5991 378.078 87.063 381.073 81.9901L380.212 81.4816ZM367.186 88.5991C364.068 88.5991 361.483 87.8876 359.402 86.4938L358.846 87.3246C361.124 88.8507 363.913 89.5991 367.186 89.5991V88.5991ZM359.398 86.4908C358.305 85.7755 357.477 84.8568 356.904 83.7308L356.013 84.1842C356.667 85.4703 357.616 86.5194 358.85 87.3275L359.398 86.4908ZM355.984 83.7984L354.429 88.4322L355.377 88.7504L356.932 84.1166L355.984 83.7984ZM354.903 88.0913H351.983V89.0913H354.903V88.0913ZM366.837 54.5439C364.55 54.5439 362.421 55.3543 360.46 56.9404L361.089 57.7178C362.895 56.2571 364.807 55.5439 366.837 55.5439V54.5439ZM360.457 56.9431C358.958 58.1773 357.877 59.6319 357.23 61.3065L358.162 61.6671C358.742 60.1679 359.713 58.8507 361.092 57.7151L360.457 56.9431ZM357.23 61.3051C356.373 63.5025 355.958 66.418 355.958 70.0244H356.958C356.958 66.4791 357.368 63.7029 358.162 61.6685L357.23 61.3051ZM355.958 70.0244C355.958 74.6314 356.433 78.0836 357.43 80.3207L358.343 79.9137C357.436 77.8767 356.958 74.6004 356.958 70.0244H355.958ZM357.429 80.3194C358.457 82.6424 360.195 84.3091 362.615 85.3084L362.997 84.384C360.804 83.479 359.263 81.993 358.344 79.9149L357.429 80.3194ZM362.616 85.3088C363.973 85.865 365.456 86.1396 367.059 86.1396V85.1396C365.572 85.1396 364.22 84.8853 362.995 84.3835L362.616 85.3088ZM367.059 86.1396C370.391 86.1396 373.176 84.6181 375.394 81.6545L374.593 81.0555C372.536 83.8047 370.032 85.1396 367.059 85.1396V86.1396ZM375.392 81.6568C377.717 78.5856 378.858 74.5982 378.858 69.7388H377.858C377.858 74.4432 376.755 78.1999 374.595 81.0532L375.392 81.6568ZM378.858 69.7388C378.858 64.8719 377.405 60.918 374.461 57.9303L373.749 58.6322C376.475 61.3997 377.858 65.0842 377.858 69.7388H378.858ZM374.46 57.9294C372.241 55.689 369.695 54.5439 366.837 54.5439V55.5439C369.395 55.5439 371.694 56.5571 373.749 58.6331L374.46 57.9294ZM395.465 69.8975V69.3975H394.965V69.8975H395.465ZM397.496 79.2285L397.935 78.9889L397.934 78.9886L397.496 79.2285ZM420.95 77.4512L421.304 77.0976L420.868 76.6615L420.531 77.1784L420.95 77.4512ZM423.013 79.5142L423.447 79.7638L423.638 79.4316L423.367 79.1606L423.013 79.5142ZM393.973 82.5293L393.569 82.8238L393.569 82.824L393.973 82.5293ZM394.385 57.6782L393.99 57.3725L393.988 57.3748L394.385 57.6782ZM416.856 54.5361L416.553 54.9339L416.555 54.9355L416.856 54.5361ZM422.886 64.0894L422.399 64.2016L422.399 64.2023L422.886 64.0894ZM423.394 69.8975V70.3975H423.894V69.8975H423.394ZM417.935 66.7871V67.2871H418.459L418.435 66.7636L417.935 66.7871ZM415.555 58.5986L415.156 58.9001L415.157 58.9015L415.555 58.5986ZM398.956 58.5986L399.341 58.9173L399.342 58.9167L398.956 58.5986ZM395.591 66.7871L395.096 66.7227L395.022 67.2871H395.591V66.7871ZM394.965 69.8975V70.4053H395.965V69.8975H394.965ZM394.965 70.4053C394.965 73.8784 395.655 76.9055 397.057 79.4685L397.934 78.9886C396.628 76.6004 395.965 73.7453 395.965 70.4053H394.965ZM397.057 79.4681C398.225 81.607 399.719 83.2339 401.548 84.3236C403.378 85.4134 405.514 85.9492 407.938 85.9492V84.9492C405.665 84.9492 403.711 84.4482 402.06 83.4645C400.409 82.4806 399.031 80.9972 397.935 78.9889L397.057 79.4681ZM407.938 85.9492C413.351 85.9492 417.831 83.1616 421.369 77.7239L420.531 77.1784C417.13 82.4049 412.935 84.9492 407.938 84.9492V85.9492ZM420.597 77.8047L422.66 79.8677L423.367 79.1606L421.304 77.0976L420.597 77.8047ZM422.58 79.2645C418.976 85.5202 413.968 88.5991 407.525 88.5991V89.5991C414.37 89.5991 419.688 86.288 423.447 79.7638L422.58 79.2645ZM407.525 88.5991C401.831 88.5991 397.469 86.4743 394.377 82.2346L393.569 82.824C396.866 87.3441 401.54 89.5991 407.525 89.5991V88.5991ZM394.377 82.2347C392.059 79.0559 390.886 75.1124 390.886 70.3735H389.886C389.886 75.2831 391.104 79.4435 393.569 82.8238L394.377 82.2347ZM390.886 70.3735C390.886 65.4957 392.192 61.3744 394.783 57.9817L393.988 57.3748C391.247 60.9645 389.886 65.3067 389.886 70.3735H390.886ZM394.781 57.9839C397.924 53.9169 402.041 51.894 407.176 51.894V50.894C401.731 50.894 397.322 53.0606 393.99 57.3725L394.781 57.9839ZM407.176 51.894C410.778 51.894 413.896 52.9103 416.553 54.9339L417.159 54.1383C414.315 51.9725 410.98 50.894 407.176 50.894V51.894ZM416.555 54.9355C419.543 57.1868 421.493 60.266 422.399 64.2016L423.374 63.9771C422.418 59.8301 420.347 56.5404 417.157 54.1368L416.555 54.9355ZM422.399 64.2023C422.729 65.6241 422.894 67.0884 422.894 68.5962H423.894C423.894 67.0147 423.721 65.4745 423.373 63.9764L422.399 64.2023ZM422.894 68.5962V69.8975H423.894V68.5962H422.894ZM423.394 69.3975H395.465V70.3975H423.394V69.3975ZM418.435 66.7636C418.263 63.1162 417.457 60.2711 415.953 58.2957L415.157 58.9015C416.488 60.6501 417.269 63.264 417.436 66.8106L418.435 66.7636ZM415.954 58.2972C413.765 55.4014 410.846 53.9409 407.239 53.9409V54.9409C410.53 54.9409 413.155 56.2522 415.156 58.9001L415.954 58.2972ZM407.239 53.9409C403.835 53.9409 400.938 55.4079 398.57 58.2806L399.342 58.9167C401.544 56.2458 404.169 54.9409 407.239 54.9409V53.9409ZM398.57 58.28C396.682 60.5636 395.529 63.3852 395.096 66.7227L396.087 66.8515C396.5 63.6721 397.59 61.0347 399.341 58.9173L398.57 58.28ZM395.591 67.2871H417.935V66.2871H395.591V67.2871Z" fill="white" mask="url(#path-4-outside-2_514_913)"/>
<path d="M435.307 0.5L435.307 96.7553" stroke="white" stroke-width="2"/>
<path d="M253.304 0.5L253.304 96.7553" stroke="white" stroke-width="2"/>
</svg>
